<mxfile host="app.diagrams.net" agent="Mozilla/5.0 (Windows NT 10.0; Win64; x64; rv:138.0) Gecko/20100101 Firefox/138.0" version="27.0.5">
  <diagram name="Page-1" id="eMYRIdcfibgv7nvPG5PP">
    <mxGraphModel dx="1572" dy="942" grid="1" gridSize="10" guides="1" tooltips="1" connect="1" arrows="1" fold="1" page="1" pageScale="1" pageWidth="3300" pageHeight="4681" math="0" shadow="0">
      <root>
        <mxCell id="0" />
        <mxCell id="1" parent="0" />
        <mxCell id="AMvcmI8jZIf5xcwEZppg-3" style="edgeStyle=orthogonalEdgeStyle;rounded=0;orthogonalLoop=1;jettySize=auto;html=1;exitX=1;exitY=0.5;exitDx=0;exitDy=0;entryX=0;entryY=0.5;entryDx=0;entryDy=0;" edge="1" parent="1" source="AMvcmI8jZIf5xcwEZppg-1" target="AMvcmI8jZIf5xcwEZppg-2">
          <mxGeometry relative="1" as="geometry" />
        </mxCell>
        <mxCell id="AMvcmI8jZIf5xcwEZppg-1" value="actor&#xa;Experts" style="triangle;fillColor=#ffe6cc;strokeColor=#d79b00;" name="actor" vertex="1" parent="1">
          <mxGeometry x="340" y="230" width="100" height="50" as="geometry" />
        </mxCell>
        <mxCell id="AMvcmI8jZIf5xcwEZppg-2" value="generate:engineer" style="rounded=1;whiteSpace=wrap;html=1;arcSize=50;fillColor=#e1d5e7;strokeColor=#9673a6;" name="generate:engineer" vertex="1" parent="1">
          <mxGeometry x="520" y="230" width="100" height="50" as="geometry" />
        </mxCell>
        <mxCell id="AMvcmI8jZIf5xcwEZppg-8" style="edgeStyle=orthogonalEdgeStyle;rounded=0;orthogonalLoop=1;jettySize=auto;html=1;exitX=0.5;exitY=1;exitDx=0;exitDy=0;entryX=0.5;entryY=0;entryDx=0;entryDy=0;" edge="1" parent="1" source="AMvcmI8jZIf5xcwEZppg-4" target="AMvcmI8jZIf5xcwEZppg-7">
          <mxGeometry relative="1" as="geometry" />
        </mxCell>
        <mxCell id="AMvcmI8jZIf5xcwEZppg-4" value="symbol&#xa;Preliminary FCM" style="rectangle;fillColor=#dae8fc;strokeColor=#6c8ebf;" name="symbol" vertex="1" parent="1">
          <mxGeometry x="650" y="330" width="100" height="50" as="geometry" />
        </mxCell>
        <mxCell id="AMvcmI8jZIf5xcwEZppg-6" value="&lt;div&gt;error&lt;/div&gt;&lt;div&gt;--&lt;/div&gt;&lt;div&gt;&amp;nbsp; |&lt;/div&gt;&lt;div&gt;&amp;nbsp; v&lt;/div&gt;" style="text;html=1;align=center;verticalAlign=middle;whiteSpace=wrap;rounded=0;dashed=1;fillColor=#f5f5f5;fontColor=#333333;strokeColor=#666666;strokeWidth=2;" name="text" vertex="1" parent="1">
          <mxGeometry x="620" y="230" width="80" height="100" as="geometry" />
        </mxCell>
        <mxCell id="AMvcmI8jZIf5xcwEZppg-13" style="edgeStyle=orthogonalEdgeStyle;rounded=0;orthogonalLoop=1;jettySize=auto;html=1;exitX=0.5;exitY=1;exitDx=0;exitDy=0;entryX=0.5;entryY=0;entryDx=0;entryDy=0;" edge="1" parent="1" source="AMvcmI8jZIf5xcwEZppg-7" target="AMvcmI8jZIf5xcwEZppg-12">
          <mxGeometry relative="1" as="geometry" />
        </mxCell>
        <mxCell id="AMvcmI8jZIf5xcwEZppg-7" value="transform" style="rounded=1;whiteSpace=wrap;html=1;arcSize=50;fillColor=#f8cecc;strokeColor=#b85450;" name="transform" vertex="1" parent="1">
          <mxGeometry x="650" y="460" width="100" height="50" as="geometry" />
        </mxCell>
        <mxCell id="AMvcmI8jZIf5xcwEZppg-9" value="symbol&#xa;Additional Existing&#xa;Knowledge" style="rectangle;fillColor=#dae8fc;strokeColor=#6c8ebf;" name="symbol" vertex="1" parent="1">
          <mxGeometry x="830" y="460" width="100" height="50" as="geometry" />
        </mxCell>
        <mxCell id="AMvcmI8jZIf5xcwEZppg-11" value="&lt;div&gt;error&lt;/div&gt;&lt;div&gt;&amp;lt;--&lt;/div&gt;" style="text;html=1;align=center;verticalAlign=middle;whiteSpace=wrap;rounded=0;dashed=1;fillColor=#f5f5f5;fontColor=#333333;strokeColor=#666666;strokeWidth=2;" name="text" vertex="1" parent="1">
          <mxGeometry x="750" y="470" width="80" height="30" as="geometry" />
        </mxCell>
        <mxCell id="AMvcmI8jZIf5xcwEZppg-15" style="edgeStyle=orthogonalEdgeStyle;rounded=0;orthogonalLoop=1;jettySize=auto;html=1;exitX=0.5;exitY=1;exitDx=0;exitDy=0;entryX=0.5;entryY=0;entryDx=0;entryDy=0;" edge="1" parent="1" source="AMvcmI8jZIf5xcwEZppg-12" target="AMvcmI8jZIf5xcwEZppg-14">
          <mxGeometry relative="1" as="geometry" />
        </mxCell>
        <mxCell id="AMvcmI8jZIf5xcwEZppg-12" value="symbol&#xa;Enhanced FCM" style="rectangle;fillColor=#dae8fc;strokeColor=#6c8ebf;" name="symbol" vertex="1" parent="1">
          <mxGeometry x="650" y="590" width="100" height="50" as="geometry" />
        </mxCell>
        <mxCell id="AMvcmI8jZIf5xcwEZppg-19" style="edgeStyle=orthogonalEdgeStyle;rounded=0;orthogonalLoop=1;jettySize=auto;html=1;exitX=0.5;exitY=1;exitDx=0;exitDy=0;entryX=0.5;entryY=0;entryDx=0;entryDy=0;" edge="1" parent="1" source="AMvcmI8jZIf5xcwEZppg-14" target="AMvcmI8jZIf5xcwEZppg-18">
          <mxGeometry relative="1" as="geometry" />
        </mxCell>
        <mxCell id="AMvcmI8jZIf5xcwEZppg-14" value="generate:train" style="rounded=1;whiteSpace=wrap;html=1;arcSize=50;fillColor=#e1d5e7;strokeColor=#9673a6;" name="generate:train" vertex="1" parent="1">
          <mxGeometry x="650" y="720" width="100" height="50" as="geometry" />
        </mxCell>
        <mxCell id="AMvcmI8jZIf5xcwEZppg-17" style="edgeStyle=orthogonalEdgeStyle;rounded=0;orthogonalLoop=1;jettySize=auto;html=1;entryX=0;entryY=0.5;entryDx=0;entryDy=0;" edge="1" parent="1" source="AMvcmI8jZIf5xcwEZppg-16" target="AMvcmI8jZIf5xcwEZppg-14">
          <mxGeometry relative="1" as="geometry" />
        </mxCell>
        <mxCell id="AMvcmI8jZIf5xcwEZppg-16" value="data&#xa;Previous Cases" style="rectangle;fillColor=#fff2cc;strokeColor=#d6b656;" name="data" vertex="1" parent="1">
          <mxGeometry x="470" y="720" width="100" height="50" as="geometry" />
        </mxCell>
        <mxCell id="AMvcmI8jZIf5xcwEZppg-25" style="edgeStyle=orthogonalEdgeStyle;rounded=0;orthogonalLoop=1;jettySize=auto;html=1;exitX=0.5;exitY=1;exitDx=0;exitDy=0;entryX=0.5;entryY=0;entryDx=0;entryDy=0;" edge="1" parent="1" source="AMvcmI8jZIf5xcwEZppg-18" target="AMvcmI8jZIf5xcwEZppg-24">
          <mxGeometry relative="1" as="geometry" />
        </mxCell>
        <mxCell id="AMvcmI8jZIf5xcwEZppg-18" value="model:hybrid&#xa;FCM-DSS" style="shape=hexagon;perimeter=hexagonPerimeter2;fillColor=#b0e3e6;strokeColor=#0e8088;" name="model" vertex="1" parent="1">
          <mxGeometry x="640" y="850" width="120" height="50" as="geometry" />
        </mxCell>
        <mxCell id="AMvcmI8jZIf5xcwEZppg-26" style="edgeStyle=orthogonalEdgeStyle;rounded=0;orthogonalLoop=1;jettySize=auto;html=1;entryX=1;entryY=0.5;entryDx=0;entryDy=0;" edge="1" parent="1" source="AMvcmI8jZIf5xcwEZppg-20" target="AMvcmI8jZIf5xcwEZppg-24">
          <mxGeometry relative="1" as="geometry" />
        </mxCell>
        <mxCell id="AMvcmI8jZIf5xcwEZppg-20" value="data&#xa;Real-Time Patient&#xa;Data" style="rectangle;fillColor=#fff2cc;strokeColor=#d6b656;" name="data" vertex="1" parent="1">
          <mxGeometry x="830" y="980" width="100" height="50" as="geometry" />
        </mxCell>
        <mxCell id="AMvcmI8jZIf5xcwEZppg-28" style="edgeStyle=orthogonalEdgeStyle;rounded=0;orthogonalLoop=1;jettySize=auto;html=1;exitX=0.5;exitY=1;exitDx=0;exitDy=0;entryX=0.5;entryY=0;entryDx=0;entryDy=0;" edge="1" parent="1" source="AMvcmI8jZIf5xcwEZppg-24" target="AMvcmI8jZIf5xcwEZppg-27">
          <mxGeometry relative="1" as="geometry" />
        </mxCell>
        <mxCell id="AMvcmI8jZIf5xcwEZppg-24" value="infer:deduce" style="rounded=1;whiteSpace=wrap;html=1;arcSize=50;fillColor=#bac8d3;strokeColor=#23445d;" name="infer:deduce" vertex="1" parent="1">
          <mxGeometry x="650" y="980" width="100" height="50" as="geometry" />
        </mxCell>
        <mxCell id="AMvcmI8jZIf5xcwEZppg-30" style="edgeStyle=orthogonalEdgeStyle;rounded=0;orthogonalLoop=1;jettySize=auto;html=1;exitX=0.5;exitY=1;exitDx=0;exitDy=0;entryX=0.5;entryY=0;entryDx=0;entryDy=0;" edge="1" parent="1" source="AMvcmI8jZIf5xcwEZppg-27" target="AMvcmI8jZIf5xcwEZppg-29">
          <mxGeometry relative="1" as="geometry" />
        </mxCell>
        <mxCell id="AMvcmI8jZIf5xcwEZppg-27" value="symbol&#xa;DS Outputs" style="rectangle;fillColor=#dae8fc;strokeColor=#6c8ebf;" name="symbol" vertex="1" parent="1">
          <mxGeometry x="650" y="1110" width="100" height="50" as="geometry" />
        </mxCell>
        <mxCell id="AMvcmI8jZIf5xcwEZppg-35" style="edgeStyle=orthogonalEdgeStyle;rounded=0;orthogonalLoop=1;jettySize=auto;html=1;exitX=0.5;exitY=1;exitDx=0;exitDy=0;entryX=0.5;entryY=0;entryDx=0;entryDy=0;" edge="1" parent="1" source="AMvcmI8jZIf5xcwEZppg-29" target="AMvcmI8jZIf5xcwEZppg-34">
          <mxGeometry relative="1" as="geometry" />
        </mxCell>
        <mxCell id="AMvcmI8jZIf5xcwEZppg-29" value="infer:deduce" style="rounded=1;whiteSpace=wrap;html=1;arcSize=50;fillColor=#bac8d3;strokeColor=#23445d;" name="infer:deduce" vertex="1" parent="1">
          <mxGeometry x="650" y="1240" width="100" height="50" as="geometry" />
        </mxCell>
        <mxCell id="AMvcmI8jZIf5xcwEZppg-31" value="actor&#xa;Professionals" style="triangle;fillColor=#ffe6cc;strokeColor=#d79b00;" name="actor" vertex="1" parent="1">
          <mxGeometry x="470" y="1240" width="100" height="50" as="geometry" />
        </mxCell>
        <mxCell id="AMvcmI8jZIf5xcwEZppg-33" value="&lt;div&gt;error&lt;/div&gt;&lt;div&gt;--&amp;gt;&lt;/div&gt;" style="text;html=1;align=center;verticalAlign=middle;whiteSpace=wrap;rounded=0;dashed=1;fillColor=#f5f5f5;fontColor=#333333;strokeColor=#666666;strokeWidth=2;" name="text" vertex="1" parent="1">
          <mxGeometry x="570" y="1250" width="80" height="30" as="geometry" />
        </mxCell>
        <mxCell id="AMvcmI8jZIf5xcwEZppg-34" value="symbol&#xa;Updated DS&#xa;Outputs" style="rectangle;fillColor=#dae8fc;strokeColor=#6c8ebf;" name="symbol" vertex="1" parent="1">
          <mxGeometry x="650" y="1370" width="100" height="50" as="geometry" />
        </mxCell>
      </root>
    </mxGraphModel>
  </diagram>
</mxfile>
